<mxfile host="app.diagrams.net" agent="Mozilla/5.0 (Windows NT 10.0; Win64; x64) AppleWebKit/537.36 (KHTML, like Gecko) Chrome/136.0.0.0 Safari/537.36 Edg/136.0.0.0" version="27.1.1">
  <diagram name="ページ1" id="XghzVWWXXU2f_5XdIVit">
    <mxGraphModel dx="651" dy="1117" grid="1" gridSize="10" guides="1" tooltips="1" connect="1" arrows="1" fold="1" page="1" pageScale="1" pageWidth="1500" pageHeight="1500" math="0" shadow="0">
      <root>
        <mxCell id="0" />
        <mxCell id="1" parent="0" />
        <mxCell id="Wjqhej78Ilv9c91KB7VH-1" value="AMR移動要求" style="rounded=1;whiteSpace=wrap;html=1;" vertex="1" parent="1">
          <mxGeometry x="120" y="40" width="200" height="40" as="geometry" />
        </mxCell>
        <mxCell id="Wjqhej78Ilv9c91KB7VH-3" value="侵入フラグチェック" style="rounded=0;whiteSpace=wrap;html=1;" vertex="1" parent="1">
          <mxGeometry x="120" y="560" width="200" height="40" as="geometry" />
        </mxCell>
        <mxCell id="Wjqhej78Ilv9c91KB7VH-8" style="edgeStyle=orthogonalEdgeStyle;rounded=0;orthogonalLoop=1;jettySize=auto;html=1;entryX=0.5;entryY=0;entryDx=0;entryDy=0;" edge="1" parent="1" source="Wjqhej78Ilv9c91KB7VH-5" target="Wjqhej78Ilv9c91KB7VH-3">
          <mxGeometry relative="1" as="geometry" />
        </mxCell>
        <mxCell id="Wjqhej78Ilv9c91KB7VH-5" value="移動中フラグセット" style="rounded=0;whiteSpace=wrap;html=1;" vertex="1" parent="1">
          <mxGeometry x="120" y="480" width="200" height="40" as="geometry" />
        </mxCell>
        <mxCell id="Wjqhej78Ilv9c91KB7VH-30" style="edgeStyle=orthogonalEdgeStyle;rounded=0;orthogonalLoop=1;jettySize=auto;html=1;entryX=0.5;entryY=0;entryDx=0;entryDy=0;" edge="1" parent="1" source="Wjqhej78Ilv9c91KB7VH-7">
          <mxGeometry relative="1" as="geometry">
            <mxPoint x="500" y="710" as="targetPoint" />
          </mxGeometry>
        </mxCell>
        <mxCell id="Wjqhej78Ilv9c91KB7VH-33" style="edgeStyle=orthogonalEdgeStyle;rounded=0;orthogonalLoop=1;jettySize=auto;html=1;exitX=0.5;exitY=1;exitDx=0;exitDy=0;exitPerimeter=0;entryX=0.5;entryY=0;entryDx=0;entryDy=0;" edge="1" parent="1" source="Wjqhej78Ilv9c91KB7VH-7" target="Wjqhej78Ilv9c91KB7VH-31">
          <mxGeometry relative="1" as="geometry" />
        </mxCell>
        <mxCell id="Wjqhej78Ilv9c91KB7VH-7" value="侵入フラグON？" style="strokeWidth=2;html=1;shape=mxgraph.flowchart.decision;whiteSpace=wrap;" vertex="1" parent="1">
          <mxGeometry x="120" y="640" width="200" height="60" as="geometry" />
        </mxCell>
        <mxCell id="Wjqhej78Ilv9c91KB7VH-9" style="edgeStyle=orthogonalEdgeStyle;rounded=0;orthogonalLoop=1;jettySize=auto;html=1;entryX=0.5;entryY=0;entryDx=0;entryDy=0;entryPerimeter=0;" edge="1" parent="1" source="Wjqhej78Ilv9c91KB7VH-3" target="Wjqhej78Ilv9c91KB7VH-7">
          <mxGeometry relative="1" as="geometry" />
        </mxCell>
        <mxCell id="Wjqhej78Ilv9c91KB7VH-20" style="edgeStyle=orthogonalEdgeStyle;rounded=0;orthogonalLoop=1;jettySize=auto;html=1;entryX=0.5;entryY=1;entryDx=0;entryDy=0;" edge="1" parent="1" source="Wjqhej78Ilv9c91KB7VH-10" target="Wjqhej78Ilv9c91KB7VH-11">
          <mxGeometry relative="1" as="geometry" />
        </mxCell>
        <mxCell id="Wjqhej78Ilv9c91KB7VH-25" style="edgeStyle=orthogonalEdgeStyle;rounded=0;orthogonalLoop=1;jettySize=auto;html=1;entryX=0.5;entryY=0;entryDx=0;entryDy=0;" edge="1" parent="1" source="Wjqhej78Ilv9c91KB7VH-10" target="Wjqhej78Ilv9c91KB7VH-24">
          <mxGeometry relative="1" as="geometry" />
        </mxCell>
        <mxCell id="Wjqhej78Ilv9c91KB7VH-10" value="AMR移動可？" style="strokeWidth=2;html=1;shape=mxgraph.flowchart.decision;whiteSpace=wrap;" vertex="1" parent="1">
          <mxGeometry x="120" y="270" width="200" height="60" as="geometry" />
        </mxCell>
        <mxCell id="Wjqhej78Ilv9c91KB7VH-11" value="移動ロック継続（WaitLock）" style="rounded=0;whiteSpace=wrap;html=1;" vertex="1" parent="1">
          <mxGeometry x="400" y="220" width="200" height="40" as="geometry" />
        </mxCell>
        <mxCell id="Wjqhej78Ilv9c91KB7VH-14" style="edgeStyle=orthogonalEdgeStyle;rounded=0;orthogonalLoop=1;jettySize=auto;html=1;entryX=0.5;entryY=0;entryDx=0;entryDy=0;entryPerimeter=0;exitX=0.5;exitY=1;exitDx=0;exitDy=0;" edge="1" parent="1" source="Wjqhej78Ilv9c91KB7VH-27" target="Wjqhej78Ilv9c91KB7VH-10">
          <mxGeometry relative="1" as="geometry">
            <mxPoint x="160" y="160" as="sourcePoint" />
            <Array as="points">
              <mxPoint x="220" y="190" />
              <mxPoint x="220" y="190" />
            </Array>
          </mxGeometry>
        </mxCell>
        <mxCell id="Wjqhej78Ilv9c91KB7VH-22" style="edgeStyle=orthogonalEdgeStyle;rounded=0;orthogonalLoop=1;jettySize=auto;html=1;exitX=0.5;exitY=0;exitDx=0;exitDy=0;entryX=0.5;entryY=0;entryDx=0;entryDy=0;entryPerimeter=0;" edge="1" parent="1" source="Wjqhej78Ilv9c91KB7VH-11" target="Wjqhej78Ilv9c91KB7VH-10">
          <mxGeometry relative="1" as="geometry">
            <Array as="points">
              <mxPoint x="500" y="180" />
              <mxPoint x="220" y="180" />
            </Array>
          </mxGeometry>
        </mxCell>
        <mxCell id="Wjqhej78Ilv9c91KB7VH-26" style="edgeStyle=orthogonalEdgeStyle;rounded=0;orthogonalLoop=1;jettySize=auto;html=1;entryX=0.5;entryY=0;entryDx=0;entryDy=0;" edge="1" parent="1" source="Wjqhej78Ilv9c91KB7VH-24" target="Wjqhej78Ilv9c91KB7VH-5">
          <mxGeometry relative="1" as="geometry" />
        </mxCell>
        <mxCell id="Wjqhej78Ilv9c91KB7VH-24" value="移動ロック解除（WaitCancel）" style="rounded=0;whiteSpace=wrap;html=1;" vertex="1" parent="1">
          <mxGeometry x="120" y="400" width="200" height="40" as="geometry" />
        </mxCell>
        <mxCell id="Wjqhej78Ilv9c91KB7VH-27" value="移動可チェック" style="rounded=0;whiteSpace=wrap;html=1;" vertex="1" parent="1">
          <mxGeometry x="120" y="120" width="200" height="40" as="geometry" />
        </mxCell>
        <mxCell id="Wjqhej78Ilv9c91KB7VH-36" style="edgeStyle=orthogonalEdgeStyle;rounded=0;orthogonalLoop=1;jettySize=auto;html=1;exitX=0.5;exitY=1;exitDx=0;exitDy=0;entryX=0.5;entryY=0;entryDx=0;entryDy=0;" edge="1" parent="1" source="Wjqhej78Ilv9c91KB7VH-29" target="Wjqhej78Ilv9c91KB7VH-31">
          <mxGeometry relative="1" as="geometry" />
        </mxCell>
        <mxCell id="Wjqhej78Ilv9c91KB7VH-29" value="後退動作" style="rounded=0;whiteSpace=wrap;html=1;" vertex="1" parent="1">
          <mxGeometry x="400" y="710" width="200" height="40" as="geometry" />
        </mxCell>
        <mxCell id="Wjqhej78Ilv9c91KB7VH-31" value="侵入フラグチェック" style="rounded=0;whiteSpace=wrap;html=1;" vertex="1" parent="1">
          <mxGeometry x="120" y="840" width="200" height="40" as="geometry" />
        </mxCell>
        <mxCell id="Wjqhej78Ilv9c91KB7VH-34" value="NO" style="text;html=1;align=center;verticalAlign=middle;whiteSpace=wrap;rounded=0;" vertex="1" parent="1">
          <mxGeometry x="320" y="270" width="60" height="30" as="geometry" />
        </mxCell>
        <mxCell id="Wjqhej78Ilv9c91KB7VH-35" value="YES" style="text;html=1;align=center;verticalAlign=middle;whiteSpace=wrap;rounded=0;" vertex="1" parent="1">
          <mxGeometry x="220" y="340" width="60" height="30" as="geometry" />
        </mxCell>
      </root>
    </mxGraphModel>
  </diagram>
</mxfile>
